<svg width="206" height="43" viewBox="0 0 206 43" fill="none" xmlns="http://www.w3.org/2000/svg">
<path d="M1.8455 33.288C1.3975 33.288 1.0455 33.144 0.7895 32.856C0.5335 32.568 0.4055 32.264 0.4055 31.944C0.4055 31.56 0.4695 31.16 0.5975 30.744L6.9335 1.8C6.9975 1.416 7.1575 1.128 7.4135 0.935998C7.7015 0.711999 8.0375 0.599999 8.4215 0.599999C8.7735 0.599999 9.0775 0.695999 9.3335 0.887999C9.5895 1.08 9.7655 1.32 9.8615 1.608L17.8775 27.048L27.0935 1.56C27.2215 1.272 27.4135 1.048 27.6695 0.887999C27.9575 0.695999 28.2775 0.599999 28.6295 0.599999C28.9495 0.599999 29.2375 0.711999 29.4935 0.935998C29.7495 1.16 29.9095 1.448 29.9735 1.8L36.4055 30.6C36.5655 31.144 36.6455 31.592 36.6455 31.944C36.6455 32.296 36.5015 32.616 36.2135 32.904C35.9255 33.16 35.5735 33.288 35.1575 33.288C34.7735 33.288 34.4375 33.192 34.1495 33C33.8935 32.776 33.7335 32.472 33.6695 32.088L28.1975 7.512L19.2215 32.328C19.1255 32.616 18.9335 32.84 18.6455 33C18.3895 33.192 18.1015 33.288 17.7815 33.288C17.4615 33.288 17.1735 33.192 16.9175 33C16.6615 32.808 16.4855 32.552 16.3895 32.232L8.6615 7.944L3.3335 32.088C3.2695 32.472 3.0935 32.776 2.8055 33C2.5495 33.192 2.2295 33.288 1.8455 33.288ZM63.6163 33.336C63.2963 33.336 62.9923 33.24 62.7043 33.048C62.4483 32.856 62.2723 32.6 62.1763 32.28L58.2403 20.856L46.2883 23.496L42.7843 32.328C42.6883 32.616 42.5123 32.84 42.2563 33C42.0003 33.192 41.7123 33.288 41.3923 33.288C40.9763 33.288 40.6243 33.144 40.3363 32.856C40.0803 32.568 39.9523 32.2 39.9523 31.752C39.9523 31.56 40.0163 31.288 40.1443 30.936L42.7843 24.168C42.4963 24.264 42.2083 24.312 41.9203 24.312C41.5363 24.28 41.2163 24.136 40.9603 23.88C40.7043 23.592 40.5763 23.24 40.5763 22.824C40.5763 22.472 40.6883 22.152 40.9123 21.864C41.1363 21.576 41.4083 21.4 41.7283 21.336L44.1283 20.808L51.8083 1.176C51.9363 0.887998 52.1443 0.663998 52.4323 0.503998C52.7203 0.311998 53.0083 0.215999 53.2963 0.215999C53.6163 0.215999 53.9043 0.311998 54.1603 0.503998C54.4163 0.663998 54.6083 0.903997 54.7363 1.224L64.8643 30.696C65.0563 31.272 65.1523 31.656 65.1523 31.848C65.1523 32.232 65.0083 32.584 64.7203 32.904C64.4323 33.192 64.0643 33.336 63.6163 33.336ZM57.1843 17.976L53.1043 6.024L47.5843 20.04L57.1843 17.976ZM76.0509 33.288C73.8109 33.288 72.0349 32.808 70.7229 31.848C69.4429 30.888 68.5629 29.784 68.0829 28.536C67.6349 27.288 67.4109 26.136 67.4109 25.08C67.4109 24.6 67.5549 24.2 67.8429 23.88C68.1309 23.56 68.5149 23.4 68.9949 23.4C69.4109 23.4 69.7629 23.56 70.0509 23.88C70.3709 24.168 70.5309 24.536 70.5309 24.984C70.5309 26.168 70.8989 27.336 71.6349 28.488C72.3709 29.64 73.8429 30.216 76.0509 30.216C78.0669 30.216 79.4429 29.736 80.1789 28.776C80.9149 27.784 81.2829 26.712 81.2829 25.56V3.816H75.6189C75.1709 3.816 74.8029 3.672 74.5149 3.384C74.2269 3.096 74.0829 2.744 74.0829 2.328C74.0829 1.944 74.2269 1.624 74.5149 1.368C74.8349 1.08 75.2029 0.935998 75.6189 0.935998H85.3629C85.7789 0.935998 86.1309 1.08 86.4189 1.368C86.7389 1.624 86.8989 1.944 86.8989 2.328C86.8989 2.744 86.7389 3.096 86.4189 3.384C86.1309 3.672 85.7949 3.816 85.4109 3.816H84.3549V25.56C84.3549 26.872 84.0669 28.12 83.4909 29.304C82.9149 30.488 82.0029 31.448 80.7549 32.184C79.5069 32.92 77.9389 33.288 76.0509 33.288ZM94.0044 33.288C93.5884 33.288 93.2204 33.144 92.9004 32.856C92.6124 32.536 92.4684 32.168 92.4684 31.752V2.088C92.4684 1.672 92.6124 1.32 92.9004 1.032C93.1884 0.743999 93.5564 0.599999 94.0044 0.599999C94.4524 0.599999 94.8204 0.743999 95.1084 1.032C95.4284 1.32 95.5884 1.672 95.5884 2.088V16.488L116.132 13.608V2.088C116.132 1.672 116.276 1.32 116.564 1.032C116.852 0.743999 117.22 0.599999 117.668 0.599999C118.084 0.599999 118.436 0.743999 118.724 1.032C119.044 1.32 119.204 1.672 119.204 2.088V31.752C119.204 32.168 119.044 32.536 118.724 32.856C118.436 33.144 118.084 33.288 117.668 33.288C117.252 33.288 116.884 33.144 116.564 32.856C116.276 32.536 116.132 32.168 116.132 31.752V16.728L95.5884 19.56V31.752C95.5884 32.168 95.4284 32.536 95.1084 32.856C94.7884 33.144 94.4204 33.288 94.0044 33.288ZM126.532 33C126.084 33 125.7 32.856 125.38 32.568C125.092 32.28 124.948 31.928 124.948 31.512C124.948 31.096 125.092 30.76 125.38 30.504C125.7 30.216 126.084 30.072 126.532 30.072H131.092V3.768H126.532C126.084 3.768 125.7 3.624 125.38 3.336C125.092 3.048 124.948 2.696 124.948 2.28C124.948 1.864 125.092 1.528 125.38 1.272C125.7 0.983999 126.084 0.839999 126.532 0.839999H138.676C139.092 0.839999 139.444 0.983999 139.732 1.272C140.02 1.528 140.164 1.864 140.164 2.28C140.164 2.696 140.02 3.048 139.732 3.336C139.444 3.624 139.092 3.768 138.676 3.768H134.164V30.072H138.676C139.124 30.072 139.476 30.216 139.732 30.504C140.02 30.76 140.164 31.096 140.164 31.512C140.164 31.928 140.02 32.28 139.732 32.568C139.444 32.856 139.092 33 138.676 33H126.532ZM147.489 33.288C147.073 33.288 146.705 33.144 146.385 32.856C146.097 32.536 145.953 32.168 145.953 31.752L146.001 2.088C146.001 1.704 146.145 1.368 146.433 1.08C146.721 0.759999 147.073 0.599999 147.489 0.599999C148.001 0.599999 148.433 0.807999 148.785 1.224L166.497 26.952V2.088C166.497 1.672 166.641 1.32 166.929 1.032C167.249 0.711998 167.617 0.551997 168.033 0.551997C168.449 0.551997 168.801 0.711998 169.089 1.032C169.409 1.32 169.569 1.672 169.569 2.088V31.752C169.569 32.168 169.425 32.536 169.137 32.856C168.849 33.144 168.481 33.288 168.033 33.288C167.841 33.288 167.617 33.224 167.361 33.096C167.105 32.968 166.913 32.808 166.785 32.616L149.073 6.984L149.025 31.752C149.025 32.168 148.865 32.536 148.545 32.856C148.257 33.144 147.905 33.288 147.489 33.288ZM178.843 42.504C178.427 42.504 178.059 42.344 177.739 42.024C177.451 41.736 177.307 41.4 177.307 41.016V10.824C177.307 10.376 177.451 10.008 177.739 9.72C178.059 9.432 178.427 9.288 178.843 9.288C179.259 9.288 179.611 9.448 179.898 9.768C180.187 10.056 180.331 10.408 180.331 10.824V12.792C182.283 10.456 185.195 9.288 189.067 9.288C190.667 9.288 192.059 9.8 193.243 10.824C194.427 11.848 195.323 13.176 195.931 14.808C196.539 16.44 196.843 18.184 196.843 20.04C196.843 23.464 196.043 26.472 194.443 29.064C192.843 31.624 190.123 32.904 186.283 32.904C184.459 32.904 182.475 32.456 180.331 31.56V41.016C180.331 41.4 180.171 41.736 179.851 42.024C179.563 42.344 179.227 42.504 178.843 42.504ZM186.571 29.88C189.195 29.88 191.099 29.016 192.283 27.288C193.499 25.528 194.107 23.112 194.107 20.04C194.107 18.824 193.931 17.608 193.579 16.392C193.227 15.144 192.635 14.104 191.803 13.272C191.003 12.408 189.963 11.976 188.683 11.976C186.571 11.976 184.811 12.424 183.403 13.32C181.995 14.184 180.971 15.08 180.331 16.008V28.344C182.603 29.368 184.683 29.88 186.571 29.88ZM204.343 33.288C203.959 33.288 203.607 33.16 203.287 32.904C202.967 32.616 202.807 32.296 202.807 31.944V1.752C202.807 1.336 202.951 0.999998 203.239 0.743998C203.527 0.455997 203.895 0.311997 204.343 0.311997C204.727 0.311997 205.063 0.455997 205.351 0.743998C205.671 1.032 205.831 1.368 205.831 1.752V31.944C205.831 32.296 205.671 32.616 205.351 32.904C205.063 33.16 204.727 33.288 204.343 33.288Z" fill="white"/>
<path d="M0.5975 30.744L2.50906 31.3322L2.53348 31.2528L2.55124 31.1717L0.5975 30.744ZM6.9335 1.8L8.88724 2.22768L8.89801 2.17848L8.90629 2.1288L6.9335 1.8ZM7.4135 0.935998L8.6135 2.536L8.62753 2.52547L8.64138 2.51471L7.4135 0.935998ZM9.8615 1.608L11.769 1.00694L11.7641 0.991201L11.7589 0.975544L9.8615 1.608ZM17.8775 27.048L15.97 27.6491L17.7473 33.2898L19.7583 27.7281L17.8775 27.048ZM27.0935 1.56L25.2659 0.74772L25.2369 0.812875L25.2127 0.879926L27.0935 1.56ZM27.6695 0.887999L28.7295 2.584L28.7544 2.56841L28.7789 2.5521L27.6695 0.887999ZM29.4935 0.935998L30.8105 -0.569154L30.8105 -0.569155L29.4935 0.935998ZM29.9735 1.8L28.0058 2.15777L28.0129 2.197L28.0216 2.23593L29.9735 1.8ZM36.4055 30.6L34.4536 31.0359L34.468 31.1007L34.4868 31.1643L36.4055 30.6ZM36.2135 32.904L37.5422 34.3988L37.5862 34.3598L37.6277 34.3182L36.2135 32.904ZM34.1495 33L32.8325 34.5051L32.9311 34.5914L33.0401 34.6641L34.1495 33ZM33.6695 32.088L35.6423 31.7592L35.6334 31.706L35.6217 31.6533L33.6695 32.088ZM28.1975 7.512L30.1497 7.07733L28.6554 0.366068L26.3167 6.83173L28.1975 7.512ZM19.2215 32.328L17.3407 31.6477L17.3321 31.6715L17.3241 31.6955L19.2215 32.328ZM18.6455 33L17.6742 31.2517L17.5548 31.318L17.4455 31.4L18.6455 33ZM16.9175 33L18.1175 31.4L18.1175 31.4L16.9175 33ZM16.3895 32.232L18.3052 31.6573L18.3004 31.6414L18.2954 31.6256L16.3895 32.232ZM8.6615 7.944L10.5674 7.33759L8.31165 0.248242L6.70849 7.51302L8.6615 7.944ZM3.3335 32.088L1.38049 31.657L1.36927 31.7079L1.36071 31.7592L3.3335 32.088ZM2.8055 33L4.0055 34.6L4.01953 34.5895L4.03338 34.5787L2.8055 33ZM1.8455 31.288C1.83575 31.288 1.89964 31.2867 2.00277 31.3289C2.11309 31.374 2.21232 31.4463 2.28432 31.5273L-0.705318 34.1847C-0.00669902 34.9707 0.928597 35.288 1.8455 35.288V31.288ZM2.28432 31.5273C2.27802 31.5202 2.31075 31.5551 2.34477 31.6359C2.38096 31.7218 2.4055 31.8292 2.4055 31.944H-1.5945C-1.5945 32.8496 -1.21695 33.6091 -0.705318 34.1847L2.28432 31.5273ZM2.4055 31.944C2.4055 31.7839 2.432 31.5826 2.50906 31.3322L-1.31406 30.1558C-1.493 30.7374 -1.5945 31.3361 -1.5945 31.944H2.4055ZM2.55124 31.1717L8.88724 2.22768L4.97976 1.37231L-1.35624 30.3163L2.55124 31.1717ZM8.90629 2.1288C8.90738 2.12225 8.8989 2.17893 8.84981 2.26728C8.79741 2.36161 8.71716 2.45825 8.6135 2.536L6.2135 -0.664004C5.46053 -0.0992756 5.08989 0.696108 4.96071 1.4712L8.90629 2.1288ZM8.64138 2.51471C8.61188 2.53765 8.56754 2.5635 8.51395 2.58137C8.46156 2.59883 8.42639 2.6 8.4215 2.6V-1.4C7.61779 -1.4 6.84396 -1.15475 6.18562 -0.642709L8.64138 2.51471ZM8.4215 2.6C8.41428 2.6 8.37322 2.59874 8.31124 2.57917C8.24727 2.55896 8.1853 2.52685 8.1335 2.488L10.5335 -0.712003C9.89647 -1.18978 9.16056 -1.4 8.4215 -1.4V2.6ZM8.1335 2.488C8.11593 2.47482 8.08144 2.44484 8.04469 2.39473C8.00736 2.34383 7.9805 2.28954 7.96413 2.24045L11.7589 0.975544C11.5271 0.280095 11.0963 -0.289888 10.5335 -0.712003L8.1335 2.488ZM7.95395 2.20905L15.97 27.6491L19.785 26.4469L11.769 1.00694L7.95395 2.20905ZM19.7583 27.7281L28.9743 2.24007L25.2127 0.879926L15.9967 26.3679L19.7583 27.7281ZM28.9211 2.37228C28.9117 2.39342 28.8906 2.43262 28.852 2.47758C28.813 2.52312 28.7694 2.55906 28.7295 2.584L26.6095 -0.807999C25.9998 -0.426946 25.5484 0.112144 25.2659 0.74772L28.9211 2.37228ZM28.7789 2.5521C28.7641 2.56197 28.7367 2.57671 28.7002 2.58765C28.664 2.59851 28.6377 2.6 28.6295 2.6V-1.4C27.8898 -1.4 27.1825 -1.19104 26.5601 -0.776104L28.7789 2.5521ZM28.6295 2.6C28.5505 2.6 28.4559 2.58508 28.3606 2.54801C28.2671 2.51165 28.2059 2.46689 28.1765 2.44115L30.8105 -0.569155C30.2149 -1.09031 29.4661 -1.4 28.6295 -1.4V2.6ZM28.1765 2.44115C28.1368 2.40638 28.0927 2.3553 28.0572 2.29128C28.0223 2.22841 28.0095 2.17843 28.0058 2.15777L31.9412 1.44223C31.8008 0.669981 31.4254 -0.031103 30.8105 -0.569154L28.1765 2.44115ZM28.0216 2.23593L34.4536 31.0359L38.3574 30.1641L31.9254 1.36407L28.0216 2.23593ZM34.4868 31.1643C34.6215 31.6223 34.6455 31.8631 34.6455 31.944H38.6455C38.6455 31.3209 38.5095 30.6657 38.3242 30.0357L34.4868 31.1643ZM34.6455 31.944C34.6455 31.838 34.6692 31.7261 34.7137 31.6273C34.7557 31.5338 34.799 31.4901 34.7993 31.4898L37.6277 34.3182C38.227 33.7189 38.6455 32.9103 38.6455 31.944H34.6455ZM34.8848 31.4092C34.9241 31.3742 34.9817 31.3373 35.05 31.3124C35.116 31.2884 35.1581 31.288 35.1575 31.288V35.288C36.021 35.288 36.8577 35.0073 37.5422 34.3988L34.8848 31.4092ZM35.1575 31.288C35.1331 31.288 35.1396 31.2851 35.1669 31.293C35.1959 31.3012 35.2291 31.316 35.2589 31.3359L33.0401 34.6641C33.6921 35.0988 34.4235 35.288 35.1575 35.288V31.288ZM35.4665 31.4949C35.5253 31.5463 35.5741 31.6093 35.6073 31.6725C35.639 31.7326 35.6438 31.7684 35.6423 31.7592L31.6967 32.4168C31.8252 33.1874 32.1789 33.9332 32.8325 34.5051L35.4665 31.4949ZM35.6217 31.6533L30.1497 7.07733L26.2453 7.94667L31.7173 32.5227L35.6217 31.6533ZM26.3167 6.83173L17.3407 31.6477L21.1023 33.0083L30.0783 8.19227L26.3167 6.83173ZM17.3241 31.6955C17.3555 31.6014 17.4097 31.5006 17.487 31.4104C17.5624 31.3224 17.6348 31.2736 17.6742 31.2517L19.6168 34.7483C20.3016 34.3679 20.8505 33.7654 21.1189 32.9605L17.3241 31.6955ZM17.4455 31.4C17.4801 31.374 17.5343 31.3422 17.605 31.3186C17.6758 31.2951 17.7382 31.288 17.7815 31.288V35.288C18.5342 35.288 19.2433 35.0516 19.8455 34.6L17.4455 31.4ZM17.7815 31.288C17.8248 31.288 17.8872 31.2951 17.958 31.3186C18.0287 31.3422 18.0829 31.374 18.1175 31.4L15.7175 34.6C16.3197 35.0516 17.0288 35.288 17.7815 35.288V31.288ZM18.1175 31.4C18.1579 31.4303 18.2029 31.4746 18.2416 31.5309C18.2798 31.5865 18.298 31.6334 18.3052 31.6573L14.4738 32.8067C14.6869 33.5169 15.1038 34.1397 15.7175 34.6L18.1175 31.4ZM18.2954 31.6256L10.5674 7.33759L6.75565 8.55041L14.4836 32.8384L18.2954 31.6256ZM6.70849 7.51302L1.38049 31.657L5.28651 32.519L10.6145 8.37498L6.70849 7.51302ZM1.36071 31.7592C1.36397 31.7397 1.37784 31.6793 1.42265 31.6019C1.46862 31.5225 1.52642 31.4611 1.57762 31.4213L4.03338 34.5787C4.74594 34.0245 5.16578 33.2599 5.30629 32.4168L1.36071 31.7592ZM1.6055 31.4C1.67396 31.3487 1.74347 31.3169 1.7988 31.3003C1.85066 31.2848 1.8713 31.288 1.8455 31.288V35.288C2.57323 35.288 3.33829 35.1004 4.0055 34.6L1.6055 31.4ZM62.7043 33.048L61.5043 34.648L61.5487 34.6813L61.5949 34.7121L62.7043 33.048ZM62.1763 32.28L64.0919 31.7053L64.0803 31.6667L64.0672 31.6285L62.1763 32.28ZM58.2403 20.856L60.1312 20.2045L59.5502 18.5184L57.8089 18.9031L58.2403 20.856ZM46.2883 23.496L45.8569 21.5431L44.8206 21.772L44.4292 22.7584L46.2883 23.496ZM42.7843 32.328L40.9252 31.5904L40.9046 31.6425L40.8869 31.6955L42.7843 32.328ZM42.2563 33L41.1963 31.304L41.1242 31.349L41.0563 31.4L42.2563 33ZM40.3363 32.856L38.8414 34.1847L38.8805 34.2287L38.922 34.2702L40.3363 32.856ZM40.1443 30.936L38.281 30.2092L38.2726 30.2308L38.2647 30.2525L40.1443 30.936ZM42.7843 24.168L44.6475 24.8948L46.1971 20.9222L42.1518 22.2706L42.7843 24.168ZM41.9203 24.312L41.7542 26.3051L41.8371 26.312H41.9203V24.312ZM40.9603 23.88L39.4654 25.2087L39.5045 25.2527L39.546 25.2942L40.9603 23.88ZM41.7283 21.336L42.1205 23.2972L42.1393 23.2934L42.158 23.2893L41.7283 21.336ZM44.1283 20.808L44.558 22.7613L45.6015 22.5317L45.9908 21.5366L44.1283 20.808ZM51.8083 1.176L49.9806 0.36372L49.9622 0.405149L49.9457 0.447371L51.8083 1.176ZM52.4323 0.503998L53.4035 2.25231L53.4743 2.213L53.5416 2.1681L52.4323 0.503998ZM54.1603 0.503998L52.9603 2.104L53.0282 2.15497L53.1003 2.2L54.1603 0.503998ZM54.7363 1.224L56.6277 0.57401L56.6116 0.527187L56.5932 0.481219L54.7363 1.224ZM64.8643 30.696L66.7616 30.0635L66.7587 30.0548L66.7557 30.046L64.8643 30.696ZM64.7203 32.904L66.1345 34.3182L66.1717 34.281L66.2068 34.2419L64.7203 32.904ZM57.1843 17.976L57.6046 19.9313L59.8037 19.4585L59.077 17.3299L57.1843 17.976ZM53.1043 6.024L54.997 5.37788L53.2383 0.225805L51.2434 5.29112L53.1043 6.024ZM47.5843 20.04L45.7234 19.3071L44.3557 22.7798L48.0046 21.9953L47.5843 20.04ZM63.6163 31.336C63.6598 31.336 63.7069 31.3431 63.7505 31.3568C63.7929 31.3702 63.8143 31.3843 63.8137 31.3839L61.5949 34.7121C62.1833 35.1044 62.869 35.336 63.6163 35.336V31.336ZM63.9043 31.448C63.9447 31.4783 63.9896 31.5226 64.0283 31.5789C64.0665 31.6345 64.0847 31.6814 64.0919 31.7053L60.2606 32.8547C60.4737 33.5649 60.8905 34.1877 61.5043 34.648L63.9043 31.448ZM64.0672 31.6285L60.1312 20.2045L56.3493 21.5075L60.2853 32.9315L64.0672 31.6285ZM57.8089 18.9031L45.8569 21.5431L46.7196 25.4489L58.6716 22.8089L57.8089 18.9031ZM44.4292 22.7584L40.9252 31.5904L44.6433 33.0656L48.1473 24.2336L44.4292 22.7584ZM40.8869 31.6955C40.9068 31.6357 40.9444 31.5568 41.0076 31.4764C41.0709 31.3958 41.1398 31.3393 41.1963 31.304L43.3162 34.696C43.9689 34.2881 44.4395 33.6868 44.6816 32.9605L40.8869 31.6955ZM41.0563 31.4C41.0909 31.374 41.1451 31.3422 41.2158 31.3186C41.2865 31.2951 41.349 31.288 41.3923 31.288V35.288C42.145 35.288 42.8541 35.0516 43.4563 34.6L41.0563 31.4ZM41.3923 31.288C41.4195 31.288 41.4875 31.2937 41.5735 31.3289C41.6604 31.3644 41.7201 31.4115 41.7505 31.4418L38.922 34.2702C39.594 34.9422 40.4585 35.288 41.3923 35.288V31.288ZM41.8311 31.5273C41.8792 31.5814 41.9161 31.6462 41.9372 31.707C41.9568 31.7632 41.9523 31.7853 41.9523 31.752H37.9523C37.9523 32.6052 38.2079 33.472 38.8414 34.1847L41.8311 31.5273ZM41.9523 31.752C41.9523 31.8127 41.9474 31.8526 41.9455 31.8663C41.9435 31.8809 41.9428 31.8803 41.9471 31.8621C41.9562 31.8231 41.9783 31.7448 42.0238 31.6195L38.2647 30.2525C38.1179 30.6561 37.9523 31.1981 37.9523 31.752H41.9523ZM42.0075 31.6628L44.6475 24.8948L40.921 23.4412L38.281 30.2092L42.0075 31.6628ZM42.1518 22.2706C42.0566 22.3024 41.9819 22.312 41.9203 22.312V26.312C42.4346 26.312 42.9359 26.2256 43.4167 26.0654L42.1518 22.2706ZM42.0863 22.3189C42.0985 22.3199 42.1466 22.3263 42.213 22.3562C42.281 22.3868 42.3366 22.4279 42.3745 22.4658L39.546 25.2942C40.1591 25.9073 40.9316 26.2365 41.7542 26.3051L42.0863 22.3189ZM42.4551 22.5513C42.49 22.5906 42.527 22.6482 42.5518 22.7165C42.5758 22.7825 42.5763 22.8246 42.5763 22.824H38.5763C38.5763 23.6875 38.857 24.5242 39.4654 25.2087L42.4551 22.5513ZM42.5763 22.824C42.5763 22.8643 42.5691 22.9203 42.548 22.9807C42.5271 23.0403 42.5019 23.0778 42.491 23.0919L39.3335 20.6361C38.8472 21.2614 38.5763 22.0101 38.5763 22.824H42.5763ZM42.491 23.0919C42.4825 23.1027 42.4451 23.147 42.3708 23.1951C42.2936 23.2451 42.2058 23.2801 42.1205 23.2972L41.336 19.3748C40.4891 19.5442 39.815 20.0171 39.3335 20.6361L42.491 23.0919ZM42.158 23.2893L44.558 22.7613L43.6985 18.8547L41.2985 19.3827L42.158 23.2893ZM45.9908 21.5366L53.6708 1.90462L49.9457 0.447371L42.2657 20.0794L45.9908 21.5366ZM53.6359 1.98828C53.6131 2.03953 53.5766 2.09824 53.5258 2.1529C53.4758 2.20682 53.4294 2.23796 53.4035 2.25231L51.461 -1.24432C50.8119 -0.883743 50.2933 -0.339801 49.9806 0.36372L53.6359 1.98828ZM53.5416 2.1681C53.558 2.15719 53.543 2.16993 53.4967 2.18537C53.4479 2.20164 53.3786 2.216 53.2963 2.216V-1.784C52.5396 -1.784 51.8721 -1.52628 51.3229 -1.1601L53.5416 2.1681ZM53.2963 2.216C53.253 2.216 53.1905 2.20895 53.1198 2.18537C53.0491 2.16179 52.9949 2.12996 52.9603 2.104L55.3602 -1.096C54.7581 -1.54765 54.049 -1.784 53.2963 -1.784V2.216ZM53.1003 2.2C53.0335 2.1583 52.9768 2.10624 52.9345 2.05339C52.8939 2.0026 52.8795 1.96741 52.8793 1.96678L56.5932 0.481219C56.3307 -0.174926 55.8861 -0.775862 55.2202 -1.192L53.1003 2.2ZM52.8448 1.87398L62.9728 31.346L66.7557 30.046L56.6277 0.57401L52.8448 1.87398ZM62.9669 31.3285C63.0542 31.5905 63.1091 31.7775 63.14 31.9011C63.1553 31.9622 63.1607 31.992 63.1615 31.9968C63.1636 32.0099 63.1523 31.9512 63.1523 31.848H67.1523C67.1523 31.4937 67.0756 31.1511 67.0205 30.9309C66.9554 30.6705 66.8663 30.3775 66.7616 30.0635L62.9669 31.3285ZM63.1523 31.848C63.1523 31.7829 63.1659 31.7095 63.1932 31.6427C63.219 31.5795 63.2438 31.5549 63.2337 31.5661L66.2068 34.2419C66.7823 33.6025 67.1523 32.7869 67.1523 31.848H63.1523ZM63.306 31.4898C63.351 31.4448 63.4185 31.3972 63.4995 31.3655C63.5766 31.3353 63.624 31.336 63.6163 31.336V35.336C64.5364 35.336 65.4321 35.0206 66.1345 34.3182L63.306 31.4898ZM59.077 17.3299L54.997 5.37788L51.2115 6.67012L55.2915 18.6221L59.077 17.3299ZM51.2434 5.29112L45.7234 19.3071L49.4451 20.7729L54.9651 6.75688L51.2434 5.29112ZM48.0046 21.9953L57.6046 19.9313L56.7639 16.0207L47.1639 18.0847L48.0046 21.9953ZM70.7229 31.848L69.5229 33.448L69.5323 33.4551L69.5419 33.4621L70.7229 31.848ZM68.0829 28.536L66.2005 29.2117L66.2081 29.2329L66.2162 29.254L68.0829 28.536ZM67.8429 23.88L66.3563 22.5421L66.3563 22.5421L67.8429 23.88ZM70.0509 23.88L68.5643 25.2179L68.6347 25.2962L68.7129 25.3666L70.0509 23.88ZM71.6349 28.488L69.9495 29.5648L69.9495 29.5648L71.6349 28.488ZM80.1789 28.776L81.7661 29.9929L81.7757 29.9804L81.7851 29.9677L80.1789 28.776ZM81.2829 3.816H83.2829V1.816H81.2829V3.816ZM74.5149 1.368L75.8436 2.86284L75.8528 2.85459L74.5149 1.368ZM86.4189 1.368L85.0047 2.78221L85.083 2.86054L85.1695 2.92973L86.4189 1.368ZM86.4189 3.384L85.0809 1.89741L85.0419 1.93259L85.0047 1.96978L86.4189 3.384ZM84.3549 3.816V1.816H82.3549V3.816H84.3549ZM83.4909 29.304L81.6924 28.4291L81.6924 28.4291L83.4909 29.304ZM80.7549 32.184L81.7708 33.9067L80.7549 32.184ZM76.0509 31.288C74.0785 31.288 72.7651 30.8641 71.9039 30.2339L69.5419 33.4621C71.3047 34.7519 73.5432 35.288 76.0509 35.288V31.288ZM71.9229 30.248C70.8839 29.4688 70.2701 28.6516 69.9496 27.818L66.2162 29.254C66.8556 30.9164 68.0019 32.3072 69.5229 33.448L71.9229 30.248ZM69.9653 27.8603C69.576 26.776 69.4109 25.8553 69.4109 25.08H65.4109C65.4109 26.4167 65.6937 27.8 66.2005 29.2117L69.9653 27.8603ZM69.4109 25.08C69.4109 25.0414 69.4163 25.054 69.4006 25.0974C69.3932 25.1182 69.3826 25.1411 69.3689 25.164C69.3552 25.1868 69.3411 25.2049 69.3295 25.2179L66.3563 22.5421C65.699 23.2724 65.4109 24.1671 65.4109 25.08H69.4109ZM69.3295 25.2179C69.2821 25.2705 69.2076 25.328 69.1161 25.3662C69.0298 25.4021 68.9787 25.4 68.9949 25.4V21.4C68.0205 21.4 67.0695 21.7496 66.3563 22.5421L69.3295 25.2179ZM68.9949 25.4C68.9394 25.4 68.8465 25.3877 68.7433 25.3407C68.6417 25.2946 68.5834 25.2392 68.5643 25.2179L71.5375 22.5421C70.8852 21.8174 69.9999 21.4 68.9949 21.4V25.4ZM68.7129 25.3666C68.6759 25.3332 68.6191 25.2668 68.5767 25.1695C68.5352 25.074 68.5309 25.0024 68.5309 24.984H72.5309C72.5309 23.9952 72.1493 23.0778 71.3888 22.3934L68.7129 25.3666ZM68.5309 24.984C68.5309 26.6057 69.0405 28.142 69.9495 29.5648L73.3203 27.4112C72.7572 26.53 72.5309 25.7303 72.5309 24.984H68.5309ZM69.9495 29.5648C71.2376 31.581 73.5944 32.216 76.0509 32.216V28.216C74.0913 28.216 73.5041 27.699 73.3203 27.4112L69.9495 29.5648ZM76.0509 32.216C78.2796 32.216 80.4577 31.6994 81.7661 29.9929L78.5917 27.5591C78.428 27.7726 77.8541 28.216 76.0509 28.216V32.216ZM81.7851 29.9677C82.7572 28.6574 83.2829 27.173 83.2829 25.56H79.2829C79.2829 26.251 79.0726 26.9106 78.5727 27.5843L81.7851 29.9677ZM83.2829 25.56V3.816H79.2829V25.56H83.2829ZM81.2829 1.816H75.6189V5.816H81.2829V1.816ZM75.6189 1.816C75.6112 1.816 75.6585 1.81531 75.7357 1.84551C75.8166 1.87717 75.8841 1.92481 75.9291 1.96978L73.1007 4.79821C73.803 5.50055 74.6987 5.816 75.6189 5.816V1.816ZM75.9291 1.96978C75.9594 2.00011 76.0064 2.05986 76.042 2.14673C76.0772 2.23276 76.0829 2.30079 76.0829 2.328H72.0829C72.0829 3.26172 72.4287 4.12625 73.1007 4.79821L75.9291 1.96978ZM76.0829 2.328C76.0829 2.392 76.0694 2.4992 76.0147 2.62073C75.9601 2.74209 75.8895 2.82206 75.8436 2.86282L73.1861 -0.126819C72.4729 0.507204 72.0829 1.37045 72.0829 2.328H76.0829ZM75.8528 2.85459C75.85 2.85708 75.8189 2.88331 75.7597 2.90648C75.6994 2.93009 75.6469 2.936 75.6189 2.936V-1.064C74.6902 -1.064 73.8501 -0.724434 73.1769 -0.11859L75.8528 2.85459ZM75.6189 2.936H85.3629V-1.064H75.6189V2.936ZM85.3629 2.936C85.3357 2.936 85.2676 2.93029 85.1816 2.89509C85.0947 2.85955 85.035 2.81253 85.0047 2.78221L87.8331 -0.0462154C87.1611 -0.718181 86.2966 -1.064 85.3629 -1.064V2.936ZM85.1695 2.92973C85.1363 2.9032 85.057 2.82839 84.99 2.69443C84.9211 2.55662 84.8989 2.42321 84.8989 2.328H88.8989C88.8989 1.29097 88.426 0.412468 87.6683 -0.193738L85.1695 2.92973ZM84.8989 2.328C84.8989 2.2725 84.9112 2.17961 84.9581 2.07639C85.0043 1.97483 85.0597 1.91656 85.0809 1.89741L87.7568 4.87059C88.4815 4.21834 88.8989 3.33307 88.8989 2.328H84.8989ZM85.0047 1.96978C85.0201 1.95438 85.0719 1.90876 85.163 1.86971C85.2565 1.82966 85.3459 1.816 85.4109 1.816V5.816C86.36 5.816 87.1953 5.43603 87.8331 4.79821L85.0047 1.96978ZM85.4109 1.816H84.3549V5.816H85.4109V1.816ZM82.3549 3.816V25.56H86.3549V3.816H82.3549ZM82.3549 25.56C82.3549 26.5677 82.1363 27.5167 81.6924 28.4291L85.2893 30.1789C85.9975 28.7233 86.3549 27.1763 86.3549 25.56H82.3549ZM81.6924 28.4291C81.3054 29.2245 80.6838 29.904 79.7389 30.4613L81.7708 33.9067C83.3219 32.992 84.5243 31.7515 85.2893 30.1789L81.6924 28.4291ZM79.7389 30.4613C78.8785 30.9687 77.6873 31.288 76.0509 31.288V35.288C78.1905 35.288 80.1352 34.8713 81.7708 33.9067L79.7389 30.4613ZM92.9004 32.856L91.4138 34.1939L91.4842 34.2722L91.5624 34.3426L92.9004 32.856ZM92.9004 1.032L94.3146 2.44621L94.3146 2.44621L92.9004 1.032ZM95.1084 1.032L93.6942 2.44621L93.7314 2.4834L93.7704 2.51859L95.1084 1.032ZM95.5884 16.488H93.5884V18.7879L95.866 18.4686L95.5884 16.488ZM116.132 13.608L116.41 15.5886L118.132 15.3472V13.608H116.132ZM118.724 1.032L117.31 2.44621L117.347 2.4834L117.386 2.51859L118.724 1.032ZM118.724 32.856L120.139 34.2702L120.139 34.2702L118.724 32.856ZM116.564 32.856L115.078 34.1939L115.148 34.2722L115.226 34.3426L116.564 32.856ZM116.132 16.728H118.132V14.4334L115.859 14.7467L116.132 16.728ZM95.5884 19.56L95.3153 17.5787L93.5884 17.8168V19.56H95.5884ZM95.1084 32.856L96.4463 34.3426L96.4854 34.3074L96.5226 34.2702L95.1084 32.856ZM94.0044 31.288C94.0324 31.288 94.0849 31.2939 94.1452 31.3175C94.2044 31.3407 94.2355 31.3669 94.2383 31.3694L91.5624 34.3426C92.2356 34.9484 93.0757 35.288 94.0044 35.288V31.288ZM94.387 31.5181C94.3895 31.5208 94.4157 31.552 94.4389 31.6112C94.4625 31.6715 94.4684 31.7239 94.4684 31.752H90.4684C90.4684 32.6807 90.8079 33.5208 91.4138 34.1939L94.387 31.5181ZM94.4684 31.752V2.088H90.4684V31.752H94.4684ZM94.4684 2.088C94.4684 2.11521 94.4627 2.18324 94.4275 2.26927C94.3919 2.35614 94.3449 2.41589 94.3146 2.44621L91.4862 -0.382214C90.8142 0.28975 90.4684 1.15427 90.4684 2.088H94.4684ZM94.3146 2.44621C94.2696 2.49118 94.2021 2.53883 94.1212 2.57048C94.044 2.60068 93.9967 2.6 94.0044 2.6V-1.4C93.0842 -1.4 92.1885 -1.08456 91.4862 -0.382213L94.3146 2.44621ZM94.0044 2.6C94.0121 2.6 93.9647 2.60068 93.8876 2.57049C93.8067 2.53883 93.7391 2.49118 93.6942 2.44621L96.5226 -0.382214C95.8202 -1.08456 94.9246 -1.4 94.0044 -1.4V2.6ZM93.7704 2.51859C93.7492 2.49944 93.6938 2.44117 93.6476 2.33961C93.6007 2.23639 93.5884 2.1435 93.5884 2.088H97.5884C97.5884 1.08292 97.171 0.197655 96.4463 -0.454588L93.7704 2.51859ZM93.5884 2.088V16.488H97.5884V2.088H93.5884ZM95.866 18.4686L116.41 15.5886L115.855 11.6274L95.3107 14.5074L95.866 18.4686ZM118.132 13.608V2.088H114.132V13.608H118.132ZM118.132 2.088C118.132 2.11521 118.127 2.18324 118.091 2.26927C118.056 2.35614 118.009 2.41589 117.979 2.44621L115.15 -0.382214C114.478 0.28975 114.132 1.15427 114.132 2.088H118.132ZM117.979 2.44621C117.934 2.49118 117.866 2.53883 117.785 2.57048C117.708 2.60068 117.661 2.6 117.668 2.6V-1.4C116.748 -1.4 115.853 -1.08456 115.15 -0.382214L117.979 2.44621ZM117.668 2.6C117.641 2.6 117.573 2.59429 117.487 2.55909C117.4 2.52356 117.34 2.47653 117.31 2.44621L120.139 -0.382214C119.467 -1.05418 118.602 -1.4 117.668 -1.4V2.6ZM117.386 2.51859C117.365 2.49944 117.31 2.44117 117.264 2.33961C117.217 2.23639 117.204 2.1435 117.204 2.088H121.204C121.204 1.08292 120.787 0.197655 120.062 -0.454588L117.386 2.51859ZM117.204 2.088V31.752H121.204V2.088H117.204ZM117.204 31.752C117.204 31.6959 117.217 31.6194 117.25 31.5425C117.282 31.4689 117.315 31.4367 117.31 31.4418L120.139 34.2702C120.797 33.6115 121.204 32.7477 121.204 31.752H117.204ZM117.31 31.4418C117.34 31.4115 117.4 31.3644 117.487 31.3289C117.573 31.2937 117.641 31.288 117.668 31.288V35.288C118.602 35.288 119.467 34.9422 120.139 34.2702L117.31 31.4418ZM117.668 31.288C117.696 31.288 117.749 31.2939 117.809 31.3175C117.868 31.3407 117.9 31.3669 117.902 31.3694L115.226 34.3426C115.9 34.9484 116.74 35.288 117.668 35.288V31.288ZM118.051 31.5181C118.053 31.5208 118.08 31.552 118.103 31.6112C118.126 31.6715 118.132 31.7239 118.132 31.752H114.132C114.132 32.6807 114.472 33.5208 115.078 34.1939L118.051 31.5181ZM118.132 31.752V16.728H114.132V31.752H118.132ZM115.859 14.7467L95.3153 17.5787L95.8615 21.5413L116.405 18.7093L115.859 14.7467ZM93.5884 19.56V31.752H97.5884V19.56H93.5884ZM93.5884 31.752C93.5884 31.6959 93.6008 31.6194 93.6342 31.5425C93.6662 31.4689 93.6993 31.4367 93.6942 31.4418L96.5226 34.2702C97.1813 33.6115 97.5884 32.7477 97.5884 31.752H93.5884ZM93.7704 31.3694C93.7732 31.3669 93.8044 31.3407 93.8636 31.3175C93.9239 31.2939 93.9763 31.288 94.0044 31.288V35.288C94.9331 35.288 95.7731 34.9484 96.4463 34.3426L93.7704 31.3694ZM125.38 32.568L123.966 33.9822L124.003 34.0194L124.042 34.0546L125.38 32.568ZM125.38 30.504L126.709 31.9988L126.718 31.9906L125.38 30.504ZM131.092 30.072V32.072H133.092V30.072H131.092ZM131.092 3.768H133.092V1.768H131.092V3.768ZM125.38 3.336L123.966 4.75021L124.003 4.7874L124.042 4.82259L125.38 3.336ZM125.38 1.272L126.709 2.76685L126.718 2.75859L125.38 1.272ZM139.732 1.272L138.318 2.68621L138.359 2.72777L138.403 2.76682L139.732 1.272ZM139.732 3.336L141.146 4.75021L141.146 4.75021L139.732 3.336ZM134.164 3.768V1.768H132.164V3.768H134.164ZM134.164 30.072H132.164V32.072H134.164V30.072ZM139.732 30.504L138.237 31.8327L138.315 31.9207L138.403 31.9988L139.732 30.504ZM139.732 32.568L141.146 33.9822L141.146 33.9822L139.732 32.568ZM126.532 31C126.526 31 126.558 30.9997 126.61 31.0193C126.664 31.0395 126.701 31.0665 126.718 31.0814L124.042 34.0546C124.745 34.6876 125.612 35 126.532 35V31ZM126.794 31.1538C126.824 31.1841 126.871 31.2439 126.907 31.3307C126.942 31.4168 126.948 31.4848 126.948 31.512H122.948C122.948 32.4457 123.294 33.3102 123.966 33.9822L126.794 31.1538ZM126.948 31.512C126.948 31.5376 126.943 31.6228 126.894 31.7358C126.844 31.8527 126.772 31.9423 126.709 31.9988L124.051 29.0092C123.299 29.6775 122.948 30.5759 122.948 31.512H126.948ZM126.718 31.9906C126.701 32.0055 126.664 32.0325 126.61 32.0527C126.558 32.0723 126.526 32.072 126.532 32.072V28.072C125.612 28.072 124.745 28.3844 124.042 29.0174L126.718 31.9906ZM126.532 32.072H131.092V28.072H126.532V32.072ZM133.092 30.072V3.768H129.092V30.072H133.092ZM131.092 1.768H126.532V5.768H131.092V1.768ZM126.532 1.768C126.526 1.768 126.558 1.76768 126.61 1.78734C126.664 1.80748 126.701 1.83455 126.718 1.84941L124.042 4.82259C124.745 5.45556 125.612 5.768 126.532 5.768V1.768ZM126.794 1.92178C126.824 1.95211 126.871 2.01186 126.907 2.09873C126.942 2.18476 126.948 2.25279 126.948 2.28H122.948C122.948 3.21372 123.294 4.07825 123.966 4.75021L126.794 1.92178ZM126.948 2.28C126.948 2.30563 126.943 2.39081 126.894 2.50384C126.844 2.62066 126.772 2.71029 126.709 2.76682L124.051 -0.222823C123.299 0.445447 122.948 1.34392 122.948 2.28H126.948ZM126.718 2.75859C126.701 2.77345 126.664 2.80052 126.61 2.82066C126.558 2.84032 126.526 2.84 126.532 2.84V-1.16C125.612 -1.16 124.745 -0.84756 124.042 -0.214589L126.718 2.75859ZM126.532 2.84H138.676V-1.16H126.532V2.84ZM138.676 2.84C138.649 2.84 138.581 2.83429 138.495 2.79909C138.408 2.76356 138.348 2.71653 138.318 2.68621L141.146 -0.142214C140.474 -0.81418 139.61 -1.16 138.676 -1.16V2.84ZM138.403 2.76682C138.34 2.71029 138.268 2.62066 138.218 2.50384C138.169 2.39081 138.164 2.30563 138.164 2.28H142.164C142.164 1.34392 141.812 0.445449 141.061 -0.222821L138.403 2.76682ZM138.164 2.28C138.164 2.25279 138.17 2.18476 138.205 2.09873C138.24 2.01187 138.287 1.95211 138.318 1.92179L141.146 4.75021C141.818 4.07824 142.164 3.21372 142.164 2.28H138.164ZM138.318 1.92178C138.348 1.89146 138.408 1.84444 138.495 1.8089C138.581 1.77371 138.649 1.768 138.676 1.768V5.768C139.61 5.768 140.474 5.42218 141.146 4.75021L138.318 1.92178ZM138.676 1.768H134.164V5.768H138.676V1.768ZM132.164 3.768V30.072H136.164V3.768H132.164ZM134.164 32.072H138.676V28.072H134.164V32.072ZM138.676 32.072C138.686 32.072 138.622 32.0733 138.519 32.0311C138.408 31.986 138.309 31.9137 138.237 31.8327L141.227 29.1753C140.528 28.3893 139.593 28.072 138.676 28.072V32.072ZM138.403 31.9988C138.34 31.9423 138.268 31.8527 138.218 31.7358C138.169 31.6228 138.164 31.5376 138.164 31.512H142.164C142.164 30.5759 141.812 29.6775 141.061 29.0092L138.403 31.9988ZM138.164 31.512C138.164 31.4848 138.17 31.4168 138.205 31.3307C138.24 31.2439 138.287 31.1841 138.318 31.1538L141.146 33.9822C141.818 33.3102 142.164 32.4457 142.164 31.512H138.164ZM138.318 31.1538C138.348 31.1235 138.408 31.0764 138.495 31.0409C138.581 31.0057 138.649 31 138.676 31V35C139.61 35 140.474 34.6542 141.146 33.9822L138.318 31.1538ZM138.676 31H126.532V35H138.676V31ZM146.385 32.856L144.898 34.1939L144.969 34.2722L145.047 34.3426L146.385 32.856ZM145.953 31.752L143.953 31.7488V31.752H145.953ZM146.001 2.088L148.001 2.09123V2.088H146.001ZM146.433 1.08L147.847 2.49421L147.884 2.45702L147.919 2.41793L146.433 1.08ZM148.785 1.224L150.432 0.0898962L150.376 0.00800589L150.312 -0.0678896L148.785 1.224ZM166.497 26.952L164.849 28.0861L168.497 33.3842V26.952H166.497ZM166.929 1.032L168.343 2.44621L168.343 2.44621L166.929 1.032ZM169.089 1.032L167.602 2.36992L167.673 2.44817L167.751 2.51859L169.089 1.032ZM169.137 32.856L170.551 34.2702L170.588 34.233L170.623 34.1939L169.137 32.856ZM167.361 33.096L168.255 31.3071L168.255 31.3071L167.361 33.096ZM166.785 32.616L168.449 31.5066L168.44 31.4927L168.43 31.479L166.785 32.616ZM149.073 6.984L150.718 5.84702L147.085 0.589517L147.073 6.98012L149.073 6.984ZM149.025 31.752L147.025 31.7481V31.752H149.025ZM148.545 32.856L149.959 34.2702L149.959 34.2702L148.545 32.856ZM147.489 31.288C147.517 31.288 147.569 31.2939 147.63 31.3175C147.689 31.3407 147.72 31.3669 147.723 31.3694L145.047 34.3426C145.72 34.9484 146.56 35.288 147.489 35.288V31.288ZM147.871 31.5181C147.874 31.5208 147.9 31.552 147.923 31.6112C147.947 31.6715 147.953 31.7239 147.953 31.752H143.953C143.953 32.6807 144.292 33.5208 144.898 34.1939L147.871 31.5181ZM147.953 31.7552L148.001 2.09123L144.001 2.08476L143.953 31.7488L147.953 31.7552ZM148.001 2.088C148.001 2.15293 147.987 2.2424 147.947 2.33584C147.908 2.42696 147.862 2.47881 147.847 2.49421L145.019 -0.334214C144.381 0.303607 144.001 1.13889 144.001 2.088H148.001ZM147.919 2.41793C147.9 2.43921 147.842 2.49457 147.74 2.54073C147.637 2.58765 147.544 2.6 147.489 2.6V-1.4C146.484 -1.4 145.598 -0.982646 144.946 -0.257931L147.919 2.41793ZM147.489 2.6C147.481 2.6 147.459 2.59908 147.427 2.59215C147.396 2.58512 147.362 2.57367 147.329 2.558C147.26 2.52455 147.239 2.49308 147.258 2.51588L150.312 -0.0678896C149.607 -0.900051 148.631 -1.4 147.489 -1.4V2.6ZM147.137 2.3581L164.849 28.0861L168.144 25.8179L150.432 0.0898962L147.137 2.3581ZM168.497 26.952V2.088H164.497V26.952H168.497ZM168.497 2.088C168.497 2.11521 168.491 2.18324 168.456 2.26927C168.42 2.35614 168.373 2.41589 168.343 2.44621L165.515 -0.382214C164.843 0.28975 164.497 1.15427 164.497 2.088H168.497ZM168.343 2.44621C168.348 2.4411 168.316 2.47412 168.242 2.50614C168.165 2.53957 168.089 2.552 168.033 2.552V-1.448C167.037 -1.448 166.173 -1.04097 165.515 -0.38221L168.343 2.44621ZM168.033 2.552C167.977 2.552 167.884 2.53965 167.781 2.49273C167.68 2.44656 167.621 2.3912 167.602 2.36992L170.575 -0.305922C169.923 -1.03064 169.038 -1.448 168.033 -1.448V2.552ZM167.751 2.51859C167.73 2.49944 167.674 2.44117 167.628 2.33961C167.581 2.23639 167.569 2.1435 167.569 2.088H171.569C171.569 1.08292 171.151 0.197649 170.427 -0.454592L167.751 2.51859ZM167.569 2.088V31.752H171.569V2.088H167.569ZM167.569 31.752C167.569 31.7239 167.575 31.6715 167.598 31.6112C167.621 31.552 167.648 31.5208 167.65 31.5181L170.623 34.1939C171.229 33.5208 171.569 32.6807 171.569 31.752H167.569ZM167.723 31.4418C167.768 31.3968 167.835 31.3492 167.916 31.3175C167.993 31.2873 168.04 31.288 168.033 31.288V35.288C168.953 35.288 169.849 34.9726 170.551 34.2702L167.723 31.4418ZM168.033 31.288C168.157 31.288 168.24 31.3084 168.27 31.317C168.3 31.3256 168.297 31.3278 168.255 31.3071L166.466 34.8849C166.875 35.0892 167.415 35.288 168.033 35.288V31.288ZM168.255 31.3071C168.236 31.2978 168.343 31.3471 168.449 31.5066L165.121 33.7254C165.483 34.2689 165.973 34.6382 166.466 34.8849L168.255 31.3071ZM168.43 31.479L150.718 5.84702L147.427 8.12097L165.139 33.753L168.43 31.479ZM147.073 6.98012L147.025 31.7481L151.025 31.7559L151.073 6.98787L147.073 6.98012ZM147.025 31.752C147.025 31.6959 147.037 31.6194 147.071 31.5425C147.103 31.4689 147.136 31.4367 147.131 31.4418L149.959 34.2702C150.618 33.6115 151.025 32.7477 151.025 31.752H147.025ZM147.131 31.4418C147.161 31.4115 147.221 31.3644 147.307 31.3289C147.394 31.2937 147.462 31.288 147.489 31.288V35.288C148.422 35.288 149.287 34.9422 149.959 34.2702L147.131 31.4418ZM177.739 42.024L179.153 40.6098L179.153 40.6098L177.739 42.024ZM177.739 9.72L176.401 8.23341L176.361 8.2686L176.324 8.30579L177.739 9.72ZM179.898 9.768L178.412 11.1059L178.447 11.145L178.484 11.1822L179.898 9.768ZM180.331 12.792H178.331V18.3045L181.865 14.0744L180.331 12.792ZM194.443 29.064L196.139 30.124L196.144 30.1145L194.443 29.064ZM180.331 31.56L181.102 29.7147L178.331 28.5566V31.56H180.331ZM179.851 42.024L178.513 40.5374L178.434 40.6078L178.364 40.6861L179.851 42.024ZM192.283 27.288L190.637 26.1511L190.633 26.1575L192.283 27.288ZM193.579 16.392L191.654 16.9349L191.657 16.9481L193.579 16.392ZM191.803 13.272L190.335 14.6308L190.361 14.659L190.388 14.6862L191.803 13.272ZM183.403 13.32L184.449 15.0246L184.462 15.0161L184.476 15.0073L183.403 13.32ZM180.331 16.008L178.684 14.8725L178.331 15.3852V16.008H180.331ZM180.331 28.344H178.331V29.6363L179.509 30.1674L180.331 28.344ZM178.843 40.504C178.899 40.504 178.975 40.5164 179.052 40.5499C179.126 40.5819 179.158 40.6149 179.153 40.6098L176.324 43.4382C176.983 44.097 177.847 44.504 178.843 44.504V40.504ZM179.153 40.6098C179.168 40.6252 179.214 40.677 179.253 40.7682C179.293 40.8616 179.307 40.9511 179.307 41.016H175.307C175.307 41.9651 175.686 42.8004 176.324 43.4382L179.153 40.6098ZM179.307 41.016V10.824H175.307V41.016H179.307ZM179.307 10.824C179.307 10.8163 179.307 10.8636 179.277 10.9408C179.245 11.0217 179.198 11.0892 179.153 11.1342L176.324 8.30579C175.622 9.00813 175.307 9.90381 175.307 10.824H179.307ZM179.076 11.2066C179.074 11.2091 179.043 11.2353 178.983 11.2585C178.923 11.2821 178.871 11.288 178.843 11.288V7.288C177.914 7.288 177.074 7.62757 176.401 8.23341L179.076 11.2066ZM178.843 11.288C178.787 11.288 178.694 11.2757 178.591 11.2287C178.489 11.1826 178.431 11.1272 178.412 11.1059L181.385 8.43007C180.733 7.70535 179.848 7.288 178.843 7.288V11.288ZM178.484 11.1822C178.454 11.1519 178.407 11.0921 178.371 11.0053C178.336 10.9192 178.331 10.8512 178.331 10.824H182.331C182.331 9.89028 181.985 9.02575 181.313 8.35379L178.484 11.1822ZM178.331 10.824V12.792H182.331V10.824H178.331ZM181.865 14.0744C183.338 12.3119 185.613 11.288 189.067 11.288V7.288C184.776 7.288 181.227 8.60015 178.796 11.5096L181.865 14.0744ZM189.067 11.288C190.198 11.288 191.122 11.6346 191.934 12.3367L194.551 9.31127C192.995 7.96543 191.135 7.288 189.067 7.288V11.288ZM191.934 12.3367C192.837 13.1171 193.552 14.1528 194.056 15.5062L197.805 14.1098C197.093 12.1992 196.016 10.5789 194.551 9.31127L191.934 12.3367ZM194.056 15.5062C194.576 16.9005 194.843 18.4066 194.843 20.04H198.843C198.843 17.9614 198.501 15.9795 197.805 14.1098L194.056 15.5062ZM194.843 20.04C194.843 23.1402 194.122 25.7752 192.741 28.0135L196.144 30.1145C197.963 27.1688 198.843 23.7878 198.843 20.04H194.843ZM192.747 28.004C191.613 29.8183 189.647 30.904 186.283 30.904V34.904C190.598 34.904 194.072 33.4297 196.138 30.124L192.747 28.004ZM186.283 30.904C184.785 30.904 183.066 30.5354 181.102 29.7147L179.559 33.4053C181.883 34.3766 184.132 34.904 186.283 34.904V30.904ZM178.331 31.56V41.016H182.331V31.56H178.331ZM178.331 41.016C178.331 40.9203 178.353 40.8054 178.405 40.6961C178.454 40.5922 178.507 40.5422 178.513 40.5374L181.188 43.5106C181.873 42.8944 182.331 42.0391 182.331 41.016H178.331ZM178.364 40.6861C178.369 40.6808 178.419 40.6278 178.523 40.5783C178.632 40.5262 178.747 40.504 178.843 40.504V44.504C179.866 44.504 180.721 44.0466 181.337 43.3619L178.364 40.6861ZM186.571 31.88C189.666 31.88 192.281 30.8292 193.932 28.4185L190.633 26.1575C189.916 27.2028 188.723 27.88 186.571 27.88V31.88ZM193.928 28.4249C195.455 26.2141 196.107 23.3486 196.107 20.04H192.107C192.107 22.8754 191.542 24.8419 190.637 26.1511L193.928 28.4249ZM196.107 20.04C196.107 18.6282 195.902 17.2252 195.5 15.8359L191.657 16.9481C191.959 17.9908 192.107 19.0198 192.107 20.04H196.107ZM195.503 15.8491C195.068 14.3062 194.315 12.9558 193.217 11.8578L190.388 14.6862C190.954 15.2522 191.385 15.9818 191.654 16.9349L195.503 15.8491ZM193.27 11.9132C192.056 10.6023 190.465 9.976 188.683 9.976V13.976C189.46 13.976 189.949 14.2137 190.335 14.6308L193.27 11.9132ZM188.683 9.976C186.29 9.976 184.133 10.4846 182.329 11.6327L184.476 15.0073C185.488 14.3634 186.851 13.976 188.683 13.976V9.976ZM182.356 11.6154C180.812 12.563 179.538 13.634 178.684 14.8725L181.977 17.1435C182.403 16.526 183.177 15.805 184.449 15.0246L182.356 11.6154ZM178.331 16.008V28.344H182.331V16.008H178.331ZM179.509 30.1674C181.96 31.2723 184.324 31.88 186.571 31.88V27.88C185.041 27.88 183.245 27.4637 181.152 26.5206L179.509 30.1674ZM203.287 32.904L201.949 34.3906L201.992 34.4294L202.037 34.4657L203.287 32.904ZM203.239 0.743998L204.567 2.23882L204.611 2.19977L204.653 2.15821L203.239 0.743998ZM205.351 0.743998L203.936 2.15821L203.973 2.1954L204.013 2.23058L205.351 0.743998ZM205.351 32.904L206.679 34.3988L206.688 34.3906L205.351 32.904ZM204.343 31.288C204.378 31.288 204.425 31.2947 204.474 31.3124C204.521 31.3295 204.542 31.347 204.536 31.3423L202.037 34.4657C202.686 34.985 203.473 35.288 204.343 35.288V31.288ZM204.624 31.4174C204.614 31.4077 204.663 31.4492 204.715 31.5536C204.772 31.6666 204.807 31.8043 204.807 31.944H200.807C200.807 32.9868 201.309 33.8149 201.949 34.3906L204.624 31.4174ZM204.807 31.944V1.752H200.807V31.944H204.807ZM204.807 1.752C204.807 1.77763 204.801 1.86281 204.753 1.97584C204.703 2.09266 204.631 2.18229 204.567 2.23882L201.91 -0.75082C201.158 -0.08255 200.807 0.815918 200.807 1.752H204.807ZM204.653 2.15821C204.608 2.20318 204.54 2.25082 204.459 2.28248C204.382 2.31268 204.335 2.312 204.343 2.312V-1.688C203.422 -1.688 202.527 -1.37256 201.824 -0.670215L204.653 2.15821ZM204.343 2.312C204.278 2.312 204.188 2.29833 204.095 2.25829C204.004 2.21923 203.952 2.17362 203.936 2.15821L206.765 -0.670216C206.127 -1.30804 205.292 -1.688 204.343 -1.688V2.312ZM204.013 2.23058C204.007 2.22582 203.954 2.17581 203.905 2.07186C203.853 1.96259 203.831 1.84775 203.831 1.752H207.831C207.831 0.728924 207.373 -0.126374 206.688 -0.74259L204.013 2.23058ZM203.831 1.752V31.944H207.831V1.752H203.831ZM203.831 31.944C203.831 31.8043 203.865 31.6666 203.922 31.5536C203.974 31.4492 204.023 31.4077 204.013 31.4174L206.688 34.3906C207.328 33.8149 207.831 32.9868 207.831 31.944H203.831ZM204.022 31.4092C204.046 31.3877 204.096 31.3513 204.171 31.323C204.245 31.2947 204.308 31.288 204.343 31.288V35.288C205.218 35.288 206.027 34.979 206.679 34.3988L204.022 31.4092Z" fill="white"/>
</svg>
